<?xml version="1.0" encoding="utf-8"?>
<!-- Generator: Adobe Illustrator 25.3.1, SVG Export Plug-In . SVG Version: 6.00 Build 0)  -->
<svg version="1.1" id="Layer_1" xmlns="http://www.w3.org/2000/svg" xmlns:xlink="http://www.w3.org/1999/xlink" x="0px" y="0px"
	 viewBox="0 0 2480 3508" style="enable-background:new 0 0 2480 3508;" xml:space="preserve">
<style type="text/css">
	.st0{fill:none;stroke:#000000;stroke-miterlimit:10;}
</style>
<g id="Layer_2_1_">
	<line class="st0" x1="907.2" y1="1094.8" x2="828.3" y2="1158.8"/>
	<line class="st0" x1="979.7" y1="1602.5" x2="969.1" y2="1114"/>
	<line class="st0" x1="907.2" y1="1094.8" x2="969.1" y2="1114"/>
	<line class="st0" x1="979.7" y1="1602.5" x2="1084.3" y2="1837.2"/>
	<line class="st0" x1="1387.2" y1="1841.5" x2="1084.3" y2="1837.2"/>
	<line class="st0" x1="828.3" y1="1158.8" x2="655.5" y2="1378.5"/>
	<line class="st0" x1="604.3" y1="1754" x2="655.5" y2="1378.5"/>
	<line class="st0" x1="687.5" y1="1935.3" x2="604.3" y2="1754"/>
	<line class="st0" x1="1387.2" y1="1841.5" x2="2194.8" y2="1485"/>
	<line class="st0" x1="1822.4" y1="2135.9" x2="2094.9" y2="2199.6"/>
	<line class="st0" x1="1952.5" y1="1591.9" x2="2016.5" y2="1628.1"/>
	<line class="st0" x1="1754.1" y1="2263.9" x2="1931.2" y2="1952.4"/>
	<line class="st0" x1="2016.5" y1="1628.1" x2="1931.2" y2="1952.4"/>
	<line class="st0" x1="506.1" y1="2080.4" x2="687.5" y2="1935.3"/>
	<line class="st0" x1="1231.9" y1="799.4" x2="1047.2" y2="1754"/>
	<line class="st0" x1="1248.5" y1="1839.3" x2="1881.8" y2="951.3"/>
	<line class="st0" x1="1754.1" y1="2263.9" x2="1451.2" y2="2389.7"/>
	<line class="st0" x1="1065.1" y1="2336.4" x2="1451.2" y2="2389.7"/>
	<line class="st0" x1="926.4" y1="2447.3" x2="1065.1" y2="2336.4"/>
	<line class="st0" x1="1118.3" y1="2343.7" x2="1071.3" y2="2707.8"/>
	<line class="st0" x1="1417.4" y1="2385.1" x2="1534" y2="2709.1"/>
	<line class="st0" x1="926.4" y1="2447.3" x2="759.7" y2="2707"/>
	<line class="st0" x1="506.1" y1="2080.4" x2="355.8" y2="2146.3"/>
	<path class="st0" d="M695,2722.3"/>
	<path class="st0" d="M355.8,2146.3"/>
	<path class="st0" d="M1542.3,2732.1"/>
	<path class="st0" d="M1068.2,2732.1"/>
	<line class="st0" x1="613.7" y1="1684.7" x2="268.4" y2="1518.8"/>
	<line class="st0" x1="730.1" y1="1283.7" x2="554.4" y2="1022.7"/>
</g>
<g id="Layer_3">
	<polygon class="st0" points="1800.4,2709.8 680.2,2706.8 133.1,1753.6 682.1,801 1791.8,797.8 2352.3,1753.6 	"/>
</g>
</svg>
