<svg version="1.1" viewBox="0.0 0.0 1133.8582677165355 831.496062992126" fill="none" stroke="none" stroke-linecap="square" stroke-miterlimit="10" xmlns:xlink="http://www.w3.org/1999/xlink" xmlns="http://www.w3.org/2000/svg"><clipPath id="p.0"><path d="m0 0l1133.8583 0l0 831.49603l-1133.8583 0l0 -831.49603z" clip-rule="nonzero"/></clipPath><g clip-path="url(#p.0)"><path fill="#000000" fill-opacity="0.0" d="m0 0l1133.8583 0l0 831.49603l-1133.8583 0z" fill-rule="evenodd"/><path fill="#000000" fill-opacity="0.0" d="m0.007874016 0l1133.8582 0l0 831.37006l-1133.8582 0z" fill-rule="evenodd"/><path stroke="#000000" stroke-width="2.0" stroke-linejoin="round" stroke-linecap="butt" d="m0.007874016 0l1133.8582 0l0 831.37006l-1133.8582 0z" fill-rule="evenodd"/><path fill="#000000" fill-opacity="0.0" d="m96.0 56.64l926.3937 0l0 56.62992l-926.3937 0z" fill-rule="evenodd"/><path stroke="#000000" stroke-width="2.0" stroke-linejoin="round" stroke-linecap="butt" d="m96.0 56.64l926.3937 0l0 56.62992l-926.3937 0z" fill-rule="evenodd"/><path fill="#000000" fill-opacity="0.0" d="m96.0 189.12l926.3937 0l0 56.62993l-926.3937 0z" fill-rule="evenodd"/><path stroke="#000000" stroke-width="2.0" stroke-linejoin="round" stroke-linecap="butt" d="m96.0 189.12l926.3937 0l0 56.62993l-926.3937 0z" fill-rule="evenodd"/><path fill="#000000" fill-opacity="0.0" d="m96.0 321.6l926.3937 0l0 56.629913l-926.3937 0z" fill-rule="evenodd"/><path stroke="#000000" stroke-width="2.0" stroke-linejoin="round" stroke-linecap="butt" d="m96.0 321.6l926.3937 0l0 56.629913l-926.3937 0z" fill-rule="evenodd"/><path fill="#000000" fill-opacity="0.0" d="m96.0 453.12l926.3937 0l0 56.629913l-926.3937 0z" fill-rule="evenodd"/><path stroke="#000000" stroke-width="2.0" stroke-linejoin="round" stroke-linecap="butt" d="m96.0 453.12l926.3937 0l0 56.629913l-926.3937 0z" fill-rule="evenodd"/><path fill="#000000" fill-opacity="0.0" d="m96.0 585.6l926.3937 0l0 56.629944l-926.3937 0z" fill-rule="evenodd"/><path stroke="#000000" stroke-width="2.0" stroke-linejoin="round" stroke-linecap="butt" d="m96.0 585.6l926.3937 0l0 56.629944l-926.3937 0z" fill-rule="evenodd"/><path fill="#000000" fill-opacity="0.0" d="m96.0 718.08l926.3937 0l0 56.629883l-926.3937 0z" fill-rule="evenodd"/><path stroke="#000000" stroke-width="2.0" stroke-linejoin="round" stroke-linecap="butt" d="m96.0 718.08l926.3937 0l0 56.629883l-926.3937 0z" fill-rule="evenodd"/></g></svg>