999
"DXF R12 Output" (www.mydxf.blogspot.com)
 0 
SECTION
 2 
HEADER
 9 
$ACADVER
 1 
AC1009
 9 
$EXTMIN
 10 
 0 
 20 
 0 
 9 
$EXTMAX
 10 
 8.5 
 20 
 11 
 0 
ENDSEC
 0 
SECTION
 2 
ENTITIES
0
LINE
8
Layer 1
10
0.000000
20
220.000000
11
300.000000
21
220.000000
0
LINE
8
Layer 1
10
300.000000
20
220.000000
11
300.000000
21
0.000000
0
LINE
8
Layer 1
10
300.000000
20
0.000000
11
0.000000
21
0.000000
0
LINE
8
Layer 1
10
0.000000
20
0.000000
11
0.000000
21
220.000000
0
LINE
8
Layer 1
10
0.002083
20
220.000000
11
300.002083
21
220.000000
0
LINE
8
Layer 1
10
300.002083
20
220.000000
11
300.002083
21
0.034000
0
LINE
8
Layer 1
10
300.002083
20
0.034000
11
0.002083
21
0.034000
0
LINE
8
Layer 1
10
0.002083
20
0.034000
11
0.002083
21
220.000000
0
LINE
8
Layer 1
10
0.002083
20
220.000000
11
300.002083
21
220.000000
0
LINE
8
Layer 1
10
300.002083
20
220.000000
11
300.002083
21
0.034000
0
LINE
8
Layer 1
10
300.002083
20
0.034000
11
0.002083
21
0.034000
0
LINE
8
Layer 1
10
0.002083
20
0.034000
11
0.002083
21
220.000000
0
LINE
8
Layer 1
10
25.400000
20
205.014000
11
270.508000
21
205.014000
0
LINE
8
Layer 1
10
270.508000
20
205.014000
11
270.508000
21
190.030700
0
LINE
8
Layer 1
10
270.508000
20
190.030700
11
25.400000
21
190.030700
0
LINE
8
Layer 1
10
25.400000
20
190.030700
11
25.400000
21
205.014000
0
LINE
8
Layer 1
10
25.400000
20
205.014000
11
270.508000
21
205.014000
0
LINE
8
Layer 1
10
270.508000
20
205.014000
11
270.508000
21
190.030700
0
LINE
8
Layer 1
10
270.508000
20
190.030700
11
25.400000
21
190.030700
0
LINE
8
Layer 1
10
25.400000
20
190.030700
11
25.400000
21
205.014000
0
LINE
8
Layer 1
10
25.400000
20
169.962000
11
270.508000
21
169.962000
0
LINE
8
Layer 1
10
270.508000
20
169.962000
11
270.508000
21
154.978700
0
LINE
8
Layer 1
10
270.508000
20
154.978700
11
25.400000
21
154.978700
0
LINE
8
Layer 1
10
25.400000
20
154.978700
11
25.400000
21
169.962000
0
LINE
8
Layer 1
10
25.400000
20
169.962000
11
270.508000
21
169.962000
0
LINE
8
Layer 1
10
270.508000
20
169.962000
11
270.508000
21
154.978700
0
LINE
8
Layer 1
10
270.508000
20
154.978700
11
25.400000
21
154.978700
0
LINE
8
Layer 1
10
25.400000
20
154.978700
11
25.400000
21
169.962000
0
LINE
8
Layer 1
10
25.400000
20
134.910000
11
270.508000
21
134.910000
0
LINE
8
Layer 1
10
270.508000
20
134.910000
11
270.508000
21
119.926700
0
LINE
8
Layer 1
10
270.508000
20
119.926700
11
25.400000
21
119.926700
0
LINE
8
Layer 1
10
25.400000
20
119.926700
11
25.400000
21
134.910000
0
LINE
8
Layer 1
10
25.400000
20
134.910000
11
270.508000
21
134.910000
0
LINE
8
Layer 1
10
270.508000
20
134.910000
11
270.508000
21
119.926700
0
LINE
8
Layer 1
10
270.508000
20
119.926700
11
25.400000
21
119.926700
0
LINE
8
Layer 1
10
25.400000
20
119.926700
11
25.400000
21
134.910000
0
LINE
8
Layer 1
10
25.400000
20
100.112000
11
270.508000
21
100.112000
0
LINE
8
Layer 1
10
270.508000
20
100.112000
11
270.508000
21
85.128700
0
LINE
8
Layer 1
10
270.508000
20
85.128700
11
25.400000
21
85.128700
0
LINE
8
Layer 1
10
25.400000
20
85.128700
11
25.400000
21
100.112000
0
LINE
8
Layer 1
10
25.400000
20
100.112000
11
270.508000
21
100.112000
0
LINE
8
Layer 1
10
270.508000
20
100.112000
11
270.508000
21
85.128700
0
LINE
8
Layer 1
10
270.508000
20
85.128700
11
25.400000
21
85.128700
0
LINE
8
Layer 1
10
25.400000
20
85.128700
11
25.400000
21
100.112000
0
LINE
8
Layer 1
10
25.400000
20
65.060200
11
270.508000
21
65.060200
0
LINE
8
Layer 1
10
270.508000
20
65.060200
11
270.508000
21
50.076900
0
LINE
8
Layer 1
10
270.508000
20
50.076900
11
25.400000
21
50.076900
0
LINE
8
Layer 1
10
25.400000
20
50.076900
11
25.400000
21
65.060200
0
LINE
8
Layer 1
10
25.400000
20
65.060200
11
270.508000
21
65.060200
0
LINE
8
Layer 1
10
270.508000
20
65.060200
11
270.508000
21
50.076900
0
LINE
8
Layer 1
10
270.508000
20
50.076900
11
25.400000
21
50.076900
0
LINE
8
Layer 1
10
25.400000
20
50.076900
11
25.400000
21
65.060200
0
LINE
8
Layer 1
10
25.400000
20
30.008200
11
270.508000
21
30.008200
0
LINE
8
Layer 1
10
270.508000
20
30.008200
11
270.508000
21
15.024900
0
LINE
8
Layer 1
10
270.508000
20
15.024900
11
25.400000
21
15.024900
0
LINE
8
Layer 1
10
25.400000
20
15.024900
11
25.400000
21
30.008200
0
LINE
8
Layer 1
10
25.400000
20
30.008200
11
270.508000
21
30.008200
0
LINE
8
Layer 1
10
270.508000
20
30.008200
11
270.508000
21
15.024900
0
LINE
8
Layer 1
10
270.508000
20
15.024900
11
25.400000
21
15.024900
0
LINE
8
Layer 1
10
25.400000
20
15.024900
11
25.400000
21
30.008200
 0 
ENDSEC
 0 
EOF